<svg xmlns="http://www.w3.org/2000/svg" xmlns:xlink="http://www.w3.org/1999/xlink" width="500" zoomAndPan="magnify" viewBox="0 0 375 374.999991" height="500" preserveAspectRatio="xMidYMid meet" version="1.0"><defs><g/></defs><g fill="#ff5757" fill-opacity="1"><g transform="translate(-16.846675, 326.80484)"><g><path d="M 183.9375 -80.015625 C 183.9375 -68.535156 181.753906 -57.75 177.390625 -47.65625 C 173.035156 -37.5625 167.140625 -28.738281 159.703125 -21.1875 C 152.265625 -13.644531 143.550781 -7.695312 133.5625 -3.34375 C 123.582031 1.007812 112.851562 3.1875 101.375 3.1875 C 89.894531 3.1875 79.160156 1.007812 69.171875 -3.34375 C 59.179688 -7.695312 50.46875 -13.644531 43.03125 -21.1875 C 35.59375 -28.738281 29.695312 -37.5625 25.34375 -47.65625 C 20.988281 -57.75 18.8125 -68.535156 18.8125 -80.015625 L 18.8125 -226.015625 L 51.96875 -226.015625 L 51.96875 -80.015625 C 51.96875 -73.210938 53.238281 -66.726562 55.78125 -60.5625 C 58.332031 -54.40625 61.835938 -48.9375 66.296875 -44.15625 C 70.765625 -39.375 76.023438 -35.597656 82.078125 -32.828125 C 88.140625 -30.066406 94.570312 -28.6875 101.375 -28.6875 C 108.175781 -28.6875 114.550781 -30.066406 120.5 -32.828125 C 126.445312 -35.597656 131.648438 -39.375 136.109375 -44.15625 C 140.578125 -48.9375 144.085938 -54.40625 146.640625 -60.5625 C 149.191406 -66.726562 150.46875 -73.210938 150.46875 -80.015625 L 150.46875 -226.015625 L 183.9375 -226.015625 Z M 183.9375 -80.015625 "/></g></g></g><g fill="#ff5757" fill-opacity="1"><g transform="translate(252.617654, 22.719639)"><g><path d="M -183.9375 80.015625 C -183.9375 68.535156 -181.753906 57.75 -177.390625 47.65625 C -173.035156 37.5625 -167.140625 28.738281 -159.703125 21.1875 C -152.265625 13.644531 -143.550781 7.695312 -133.5625 3.34375 C -123.582031 -1.007812 -112.851562 -3.1875 -101.375 -3.1875 C -89.894531 -3.1875 -79.160156 -1.007812 -69.171875 3.34375 C -59.179688 7.695312 -50.46875 13.644531 -43.03125 21.1875 C -35.59375 28.738281 -29.695312 37.5625 -25.34375 47.65625 C -20.988281 57.75 -18.8125 68.535156 -18.8125 80.015625 L -18.8125 226.015625 L -51.96875 226.015625 L -51.96875 80.015625 C -51.96875 73.210938 -53.238281 66.726562 -55.78125 60.5625 C -58.332031 54.40625 -61.835938 48.9375 -66.296875 44.15625 C -70.765625 39.375 -76.023438 35.597656 -82.078125 32.828125 C -88.140625 30.066406 -94.570312 28.6875 -101.375 28.6875 C -108.175781 28.6875 -114.550781 30.066406 -120.5 32.828125 C -126.445312 35.597656 -131.648438 39.375 -136.109375 44.15625 C -140.578125 48.9375 -144.085938 54.40625 -146.640625 60.5625 C -149.191406 66.726562 -150.46875 73.210938 -150.46875 80.015625 L -150.46875 226.015625 L -183.9375 226.015625 Z M -183.9375 80.015625 "/></g></g></g><g fill="#ff5757" fill-opacity="1"><g transform="translate(189.930888, 325.330316)"><g><path d="M 96.1875 4.34375 C 84.132812 4.34375 72.863281 1.992188 62.375 -2.703125 C 51.882812 -7.410156 42.722656 -13.863281 34.890625 -22.0625 C 27.054688 -30.257812 20.847656 -39.898438 16.265625 -50.984375 C 11.691406 -62.078125 9.40625 -73.890625 9.40625 -86.421875 C 9.40625 -98.960938 11.691406 -110.773438 16.265625 -121.859375 C 20.847656 -132.953125 27.054688 -142.59375 34.890625 -150.78125 C 42.722656 -158.976562 51.882812 -165.425781 62.375 -170.125 C 72.863281 -174.832031 84.132812 -177.1875 96.1875 -177.1875 C 108 -177.1875 119.207031 -174.832031 129.8125 -170.125 C 140.425781 -165.425781 149.648438 -158.976562 157.484375 -150.78125 C 165.316406 -142.59375 171.519531 -132.953125 176.09375 -121.859375 C 180.675781 -110.773438 182.96875 -98.960938 182.96875 -86.421875 C 182.96875 -73.890625 180.675781 -62.078125 176.09375 -50.984375 C 171.519531 -39.898438 165.316406 -30.257812 157.484375 -22.0625 C 149.648438 -13.863281 140.425781 -7.410156 129.8125 -2.703125 C 119.207031 1.992188 108 4.34375 96.1875 4.34375 Z M 96.1875 -145.734375 C 89.195312 -145.734375 82.566406 -144.164062 76.296875 -141.03125 C 70.023438 -137.894531 64.539062 -133.675781 59.84375 -128.375 C 55.144531 -123.070312 51.46875 -116.800781 48.8125 -109.5625 C 46.164062 -102.332031 44.84375 -94.617188 44.84375 -86.421875 C 44.84375 -78.222656 46.164062 -70.507812 48.8125 -63.28125 C 51.46875 -56.050781 55.144531 -49.722656 59.84375 -44.296875 C 64.539062 -38.867188 70.023438 -34.585938 76.296875 -31.453125 C 82.566406 -28.328125 89.195312 -26.765625 96.1875 -26.765625 C 103.175781 -26.765625 109.804688 -28.328125 116.078125 -31.453125 C 122.347656 -34.585938 127.769531 -38.867188 132.34375 -44.296875 C 136.925781 -49.722656 140.539062 -56.050781 143.1875 -63.28125 C 145.84375 -70.507812 147.171875 -78.222656 147.171875 -86.421875 C 147.171875 -94.617188 145.84375 -102.332031 143.1875 -109.5625 C 140.539062 -116.800781 136.925781 -123.070312 132.34375 -128.375 C 127.769531 -133.675781 122.347656 -137.894531 116.078125 -141.03125 C 109.804688 -144.164062 103.175781 -145.734375 96.1875 -145.734375 Z M 96.1875 -145.734375 "/></g></g></g></svg>