<svg xmlns="http://www.w3.org/2000/svg" xmlns:xlink="http://www.w3.org/1999/xlink" width="1024" zoomAndPan="magnify" viewBox="0 0 768 383.999986" height="512" preserveAspectRatio="xMidYMid meet" version="1.0"><defs><g/><clipPath id="df7700b07c"><path d="M 136.796875 199.699219 L 149.894531 199.699219 L 149.894531 212.796875 L 136.796875 212.796875 Z M 136.796875 199.699219 " clip-rule="nonzero"/></clipPath><clipPath id="149b201abb"><path d="M 143.347656 193.148438 L 156.445312 206.246094 L 143.347656 219.347656 L 130.25 206.246094 Z M 143.347656 193.148438 " clip-rule="nonzero"/></clipPath></defs><g fill="#ff5757" fill-opacity="1"><g transform="translate(75.359203, 141.877035)"><g><path d="M -55.390625 24.09375 C -55.390625 20.632812 -54.734375 17.382812 -53.421875 14.34375 C -52.109375 11.3125 -50.332031 8.65625 -48.09375 6.375 C -45.851562 4.101562 -43.226562 2.3125 -40.21875 1 C -37.21875 -0.300781 -33.988281 -0.953125 -30.53125 -0.953125 C -27.070312 -0.953125 -23.835938 -0.300781 -20.828125 1 C -17.816406 2.3125 -15.191406 4.101562 -12.953125 6.375 C -10.710938 8.65625 -8.9375 11.3125 -7.625 14.34375 C -6.3125 17.382812 -5.65625 20.632812 -5.65625 24.09375 L -5.65625 68.0625 L -15.640625 68.0625 L -15.640625 24.09375 C -15.640625 22.050781 -16.023438 20.097656 -16.796875 18.234375 C -17.566406 16.378906 -18.625 14.734375 -19.96875 13.296875 C -21.3125 11.859375 -22.894531 10.722656 -24.71875 9.890625 C -26.539062 9.054688 -28.476562 8.640625 -30.53125 8.640625 C -32.570312 8.640625 -34.488281 9.054688 -36.28125 9.890625 C -38.070312 10.722656 -39.640625 11.859375 -40.984375 13.296875 C -42.335938 14.734375 -43.394531 16.378906 -44.15625 18.234375 C -44.925781 20.097656 -45.3125 22.050781 -45.3125 24.09375 L -45.3125 68.0625 L -55.390625 68.0625 Z M -55.390625 24.09375 "/></g></g></g><g fill="#ff5757" fill-opacity="1"><g transform="translate(-5.542954, 229.773044)"><g><path d="M 55.390625 -24.09375 C 55.390625 -20.632812 54.734375 -17.382812 53.421875 -14.34375 C 52.109375 -11.3125 50.332031 -8.65625 48.09375 -6.375 C 45.851562 -4.101562 43.226562 -2.3125 40.21875 -1 C 37.21875 0.300781 33.988281 0.953125 30.53125 0.953125 C 27.070312 0.953125 23.835938 0.300781 20.828125 -1 C 17.816406 -2.3125 15.191406 -4.101562 12.953125 -6.375 C 10.710938 -8.65625 8.9375 -11.3125 7.625 -14.34375 C 6.3125 -17.382812 5.65625 -20.632812 5.65625 -24.09375 L 5.65625 -68.0625 L 15.640625 -68.0625 L 15.640625 -24.09375 C 15.640625 -22.050781 16.023438 -20.097656 16.796875 -18.234375 C 17.566406 -16.378906 18.625 -14.734375 19.96875 -13.296875 C 21.3125 -11.859375 22.894531 -10.722656 24.71875 -9.890625 C 26.539062 -9.054688 28.476562 -8.640625 30.53125 -8.640625 C 32.570312 -8.640625 34.488281 -9.054688 36.28125 -9.890625 C 38.070312 -10.722656 39.640625 -11.859375 40.984375 -13.296875 C 42.335938 -14.734375 43.394531 -16.378906 44.15625 -18.234375 C 44.925781 -20.097656 45.3125 -22.050781 45.3125 -24.09375 L 45.3125 -68.0625 L 55.390625 -68.0625 Z M 55.390625 -24.09375 "/></g></g></g><g clip-path="url(#df7700b07c)"><g clip-path="url(#149b201abb)"><path fill="#ffffff" d="M 143.347656 193.148438 L 156.445312 206.246094 L 143.347656 219.347656 L 130.25 206.246094 Z M 143.347656 193.148438 " fill-opacity="1" fill-rule="nonzero"/></g></g><g fill="#111827" fill-opacity="1"><g transform="translate(108.4499, 229.773013)"><g><path d="M 25.53125 1.15625 C 22.332031 1.15625 19.34375 0.53125 16.5625 -0.71875 C 13.78125 -1.96875 11.347656 -3.679688 9.265625 -5.859375 C 7.179688 -8.035156 5.53125 -10.59375 4.3125 -13.53125 C 3.101562 -16.476562 2.5 -19.613281 2.5 -22.9375 C 2.5 -26.269531 3.101562 -29.40625 4.3125 -32.34375 C 5.53125 -35.289062 7.179688 -37.851562 9.265625 -40.03125 C 11.347656 -42.207031 13.78125 -43.921875 16.5625 -45.171875 C 19.34375 -46.421875 22.332031 -47.046875 25.53125 -47.046875 C 28.664062 -47.046875 31.640625 -46.421875 34.453125 -45.171875 C 37.273438 -43.921875 39.722656 -42.207031 41.796875 -40.03125 C 43.878906 -37.851562 45.53125 -35.289062 46.75 -32.34375 C 47.96875 -29.40625 48.578125 -26.269531 48.578125 -22.9375 C 48.578125 -19.613281 47.96875 -16.476562 46.75 -13.53125 C 45.53125 -10.59375 43.878906 -8.035156 41.796875 -5.859375 C 39.722656 -3.679688 37.273438 -1.96875 34.453125 -0.71875 C 31.640625 0.53125 28.664062 1.15625 25.53125 1.15625 Z M 25.53125 -38.6875 C 23.675781 -38.6875 21.914062 -38.269531 20.25 -37.4375 C 18.59375 -36.601562 17.140625 -35.484375 15.890625 -34.078125 C 14.640625 -32.671875 13.660156 -31.003906 12.953125 -29.078125 C 12.253906 -27.160156 11.90625 -25.113281 11.90625 -22.9375 C 11.90625 -20.769531 12.253906 -18.722656 12.953125 -16.796875 C 13.660156 -14.878906 14.640625 -13.195312 15.890625 -11.75 C 17.140625 -10.3125 18.59375 -9.175781 20.25 -8.34375 C 21.914062 -7.519531 23.675781 -7.109375 25.53125 -7.109375 C 27.382812 -7.109375 29.144531 -7.519531 30.8125 -8.34375 C 32.476562 -9.175781 33.914062 -10.3125 35.125 -11.75 C 36.34375 -13.195312 37.304688 -14.878906 38.015625 -16.796875 C 38.722656 -18.722656 39.078125 -20.769531 39.078125 -22.9375 C 39.078125 -25.113281 38.722656 -27.160156 38.015625 -29.078125 C 37.304688 -31.003906 36.34375 -32.671875 35.125 -34.078125 C 33.914062 -35.484375 32.476562 -36.601562 30.8125 -37.4375 C 29.144531 -38.269531 27.382812 -38.6875 25.53125 -38.6875 Z M 25.53125 -38.6875 "/></g></g></g><g fill="#111827" fill-opacity="1"><g transform="translate(159.137907, 229.773013)"><g><path d="M 25.53125 1.15625 C 22.332031 1.15625 19.34375 0.53125 16.5625 -0.71875 C 13.78125 -1.96875 11.347656 -3.679688 9.265625 -5.859375 C 7.179688 -8.035156 5.53125 -10.59375 4.3125 -13.53125 C 3.101562 -16.476562 2.5 -19.613281 2.5 -22.9375 C 2.5 -26.269531 3.101562 -29.40625 4.3125 -32.34375 C 5.53125 -35.289062 7.179688 -37.851562 9.265625 -40.03125 C 11.347656 -42.207031 13.78125 -43.921875 16.5625 -45.171875 C 19.34375 -46.421875 22.332031 -47.046875 25.53125 -47.046875 C 28.664062 -47.046875 31.640625 -46.421875 34.453125 -45.171875 C 37.273438 -43.921875 39.722656 -42.207031 41.796875 -40.03125 C 43.878906 -37.851562 45.53125 -35.289062 46.75 -32.34375 C 47.96875 -29.40625 48.578125 -26.269531 48.578125 -22.9375 C 48.578125 -19.613281 47.96875 -16.476562 46.75 -13.53125 C 45.53125 -10.59375 43.878906 -8.035156 41.796875 -5.859375 C 39.722656 -3.679688 37.273438 -1.96875 34.453125 -0.71875 C 31.640625 0.53125 28.664062 1.15625 25.53125 1.15625 Z M 25.53125 -38.6875 C 23.675781 -38.6875 21.914062 -38.269531 20.25 -37.4375 C 18.59375 -36.601562 17.140625 -35.484375 15.890625 -34.078125 C 14.640625 -32.671875 13.660156 -31.003906 12.953125 -29.078125 C 12.253906 -27.160156 11.90625 -25.113281 11.90625 -22.9375 C 11.90625 -20.769531 12.253906 -18.722656 12.953125 -16.796875 C 13.660156 -14.878906 14.640625 -13.195312 15.890625 -11.75 C 17.140625 -10.3125 18.59375 -9.175781 20.25 -8.34375 C 21.914062 -7.519531 23.675781 -7.109375 25.53125 -7.109375 C 27.382812 -7.109375 29.144531 -7.519531 30.8125 -8.34375 C 32.476562 -9.175781 33.914062 -10.3125 35.125 -11.75 C 36.34375 -13.195312 37.304688 -14.878906 38.015625 -16.796875 C 38.722656 -18.722656 39.078125 -20.769531 39.078125 -22.9375 C 39.078125 -25.113281 38.722656 -27.160156 38.015625 -29.078125 C 37.304688 -31.003906 36.34375 -32.671875 35.125 -34.078125 C 33.914062 -35.484375 32.476562 -36.601562 30.8125 -37.4375 C 29.144531 -38.269531 27.382812 -38.6875 25.53125 -38.6875 Z M 25.53125 -38.6875 "/></g></g></g><g fill="#111827" fill-opacity="1"><g transform="translate(209.825914, 229.773013)"><g><path d="M 15.171875 0 L 5.859375 0 L 5.859375 -70.078125 L 15.171875 -70.078125 L 15.171875 -27.078125 L 33.21875 -45.984375 L 44.734375 -45.984375 L 27.078125 -27.453125 L 46.078125 0 L 35.515625 0 L 21.03125 -21.125 L 15.171875 -14.96875 Z M 15.171875 0 "/></g></g></g><g fill="#111827" fill-opacity="1"><g transform="translate(257.825921, 229.773013)"><g><path d="M 27.171875 1.15625 C 23.835938 1.15625 20.710938 0.53125 17.796875 -0.71875 C 14.890625 -1.96875 12.347656 -3.679688 10.171875 -5.859375 C 7.992188 -8.035156 6.28125 -10.59375 5.03125 -13.53125 C 3.789062 -16.476562 3.171875 -19.613281 3.171875 -22.9375 C 3.171875 -26.269531 3.757812 -29.40625 4.9375 -32.34375 C 6.125 -35.289062 7.722656 -37.851562 9.734375 -40.03125 C 11.753906 -42.207031 14.109375 -43.921875 16.796875 -45.171875 C 19.484375 -46.421875 22.363281 -47.046875 25.4375 -47.046875 C 28.570312 -47.046875 31.46875 -46.5 34.125 -45.40625 C 36.78125 -44.320312 39.082031 -42.625 41.03125 -40.3125 C 42.988281 -38.007812 44.507812 -35.082031 45.59375 -31.53125 C 46.6875 -27.976562 47.234375 -23.738281 47.234375 -18.8125 L 13.0625 -18.8125 C 13.507812 -17.144531 14.210938 -15.59375 15.171875 -14.15625 C 16.128906 -12.71875 17.265625 -11.46875 18.578125 -10.40625 C 19.890625 -9.351562 21.359375 -8.539062 22.984375 -7.96875 C 24.617188 -7.394531 26.332031 -7.109375 28.125 -7.109375 C 30.5625 -7.109375 32.816406 -7.554688 34.890625 -8.453125 C 36.972656 -9.347656 38.75 -10.53125 40.21875 -12 L 45.984375 -6.234375 C 43.742188 -3.992188 41.003906 -2.203125 37.765625 -0.859375 C 34.535156 0.484375 31.003906 1.15625 27.171875 1.15625 Z M 25.4375 -38.59375 C 23.96875 -38.59375 22.578125 -38.300781 21.265625 -37.71875 C 19.953125 -37.144531 18.734375 -36.347656 17.609375 -35.328125 C 16.492188 -34.304688 15.535156 -33.085938 14.734375 -31.671875 C 13.929688 -30.265625 13.335938 -28.734375 12.953125 -27.078125 L 37.25 -27.078125 C 37.125 -28.609375 36.769531 -30.078125 36.1875 -31.484375 C 35.613281 -32.890625 34.8125 -34.117188 33.78125 -35.171875 C 32.757812 -36.234375 31.5625 -37.066406 30.1875 -37.671875 C 28.8125 -38.285156 27.226562 -38.59375 25.4375 -38.59375 Z M 25.4375 -38.59375 "/></g></g></g><g fill="#111827" fill-opacity="1"><g transform="translate(308.705926, 229.773013)"><g><path d="M 49.34375 -70.078125 L 49.34375 0 L 41.953125 0 L 40.03125 -4.796875 C 38.175781 -2.941406 36.0625 -1.484375 33.6875 -0.421875 C 31.320312 0.628906 28.601562 1.15625 25.53125 1.15625 C 22.332031 1.15625 19.390625 0.53125 16.703125 -0.71875 C 14.015625 -1.96875 11.675781 -3.679688 9.6875 -5.859375 C 7.707031 -8.035156 6.15625 -10.59375 5.03125 -13.53125 C 3.914062 -16.476562 3.359375 -19.613281 3.359375 -22.9375 C 3.359375 -26.269531 3.914062 -29.40625 5.03125 -32.34375 C 6.15625 -35.289062 7.707031 -37.851562 9.6875 -40.03125 C 11.675781 -42.207031 14.015625 -43.921875 16.703125 -45.171875 C 19.390625 -46.421875 22.332031 -47.046875 25.53125 -47.046875 C 28.738281 -47.046875 31.523438 -46.515625 33.890625 -45.453125 C 36.253906 -44.398438 38.300781 -42.910156 40.03125 -40.984375 L 40.03125 -70.078125 Z M 26.296875 -7.109375 C 28.222656 -7.109375 30 -7.425781 31.625 -8.0625 C 33.257812 -8.707031 34.703125 -9.679688 35.953125 -10.984375 C 37.203125 -12.296875 38.175781 -13.941406 38.875 -15.921875 C 39.582031 -17.910156 39.9375 -20.25 39.9375 -22.9375 C 39.9375 -25.820312 39.582031 -28.253906 38.875 -30.234375 C 38.175781 -32.222656 37.203125 -33.835938 35.953125 -35.078125 C 34.703125 -36.328125 33.257812 -37.222656 31.625 -37.765625 C 30 -38.316406 28.222656 -38.59375 26.296875 -38.59375 C 24.441406 -38.59375 22.679688 -38.191406 21.015625 -37.390625 C 19.359375 -36.585938 17.921875 -35.484375 16.703125 -34.078125 C 15.484375 -32.671875 14.519531 -31.003906 13.8125 -29.078125 C 13.113281 -27.160156 12.765625 -25.113281 12.765625 -22.9375 C 12.765625 -20.769531 13.113281 -18.722656 13.8125 -16.796875 C 14.519531 -14.878906 15.484375 -13.195312 16.703125 -11.75 C 17.921875 -10.3125 19.359375 -9.175781 21.015625 -8.34375 C 22.679688 -7.519531 24.441406 -7.109375 26.296875 -7.109375 Z M 26.296875 -7.109375 "/></g></g></g><g fill="#ff5757" fill-opacity="1"><g transform="translate(56.676174, 230.373073)"><g><path d="M 26.0625 1.171875 C 22.800781 1.171875 19.75 0.535156 16.90625 -0.734375 C 14.0625 -2.003906 11.578125 -3.75 9.453125 -5.96875 C 7.328125 -8.195312 5.644531 -10.8125 4.40625 -13.8125 C 3.164062 -16.820312 2.546875 -20.023438 2.546875 -23.421875 C 2.546875 -26.816406 3.164062 -30.015625 4.40625 -33.015625 C 5.644531 -36.023438 7.328125 -38.640625 9.453125 -40.859375 C 11.578125 -43.085938 14.0625 -44.835938 16.90625 -46.109375 C 19.75 -47.378906 22.800781 -48.015625 26.0625 -48.015625 C 29.269531 -48.015625 32.3125 -47.378906 35.1875 -46.109375 C 38.0625 -44.835938 40.554688 -43.085938 42.671875 -40.859375 C 44.796875 -38.640625 46.476562 -36.023438 47.71875 -33.015625 C 48.96875 -30.015625 49.59375 -26.816406 49.59375 -23.421875 C 49.59375 -20.023438 48.96875 -16.820312 47.71875 -13.8125 C 46.476562 -10.8125 44.796875 -8.195312 42.671875 -5.96875 C 40.554688 -3.75 38.0625 -2.003906 35.1875 -0.734375 C 32.3125 0.535156 29.269531 1.171875 26.0625 1.171875 Z M 26.0625 -39.5 C 24.164062 -39.5 22.367188 -39.070312 20.671875 -38.21875 C 18.972656 -37.375 17.488281 -36.234375 16.21875 -34.796875 C 14.945312 -33.359375 13.953125 -31.65625 13.234375 -29.6875 C 12.515625 -27.726562 12.15625 -25.640625 12.15625 -23.421875 C 12.15625 -21.203125 12.515625 -19.109375 13.234375 -17.140625 C 13.953125 -15.179688 14.945312 -13.46875 16.21875 -12 C 17.488281 -10.53125 18.972656 -9.367188 20.671875 -8.515625 C 22.367188 -7.671875 24.164062 -7.25 26.0625 -7.25 C 27.957031 -7.25 29.753906 -7.671875 31.453125 -8.515625 C 33.148438 -9.367188 34.617188 -10.53125 35.859375 -12 C 37.109375 -13.46875 38.09375 -15.179688 38.8125 -17.140625 C 39.53125 -19.109375 39.890625 -21.203125 39.890625 -23.421875 C 39.890625 -25.640625 39.53125 -27.726562 38.8125 -29.6875 C 38.09375 -31.65625 37.109375 -33.359375 35.859375 -34.796875 C 34.617188 -36.234375 33.148438 -37.375 31.453125 -38.21875 C 29.753906 -39.070312 27.957031 -39.5 26.0625 -39.5 Z M 26.0625 -39.5 "/></g></g></g><g fill="#ffffff" fill-opacity="1"><g transform="translate(67.234767, 220.665935)"><g><path d="M 15.421875 0.703125 C 13.492188 0.703125 11.6875 0.328125 10 -0.421875 C 8.320312 -1.179688 6.851562 -2.21875 5.59375 -3.53125 C 4.34375 -4.851562 3.347656 -6.398438 2.609375 -8.171875 C 1.878906 -9.953125 1.515625 -11.847656 1.515625 -13.859375 C 1.515625 -15.867188 1.878906 -17.765625 2.609375 -19.546875 C 3.347656 -21.328125 4.34375 -22.875 5.59375 -24.1875 C 6.851562 -25.5 8.320312 -26.53125 10 -27.28125 C 11.6875 -28.039062 13.492188 -28.421875 15.421875 -28.421875 C 17.316406 -28.421875 19.113281 -28.039062 20.8125 -27.28125 C 22.519531 -26.53125 24 -25.5 25.25 -24.1875 C 26.507812 -22.875 27.503906 -21.328125 28.234375 -19.546875 C 28.972656 -17.765625 29.34375 -15.867188 29.34375 -13.859375 C 29.34375 -11.847656 28.972656 -9.953125 28.234375 -8.171875 C 27.503906 -6.398438 26.507812 -4.851562 25.25 -3.53125 C 24 -2.21875 22.519531 -1.179688 20.8125 -0.421875 C 19.113281 0.328125 17.316406 0.703125 15.421875 0.703125 Z M 15.421875 -23.375 C 14.304688 -23.375 13.242188 -23.117188 12.234375 -22.609375 C 11.234375 -22.109375 10.351562 -21.429688 9.59375 -20.578125 C 8.84375 -19.734375 8.253906 -18.726562 7.828125 -17.5625 C 7.398438 -16.40625 7.1875 -15.171875 7.1875 -13.859375 C 7.1875 -12.546875 7.398438 -11.304688 7.828125 -10.140625 C 8.253906 -8.984375 8.84375 -7.96875 9.59375 -7.09375 C 10.351562 -6.226562 11.234375 -5.546875 12.234375 -5.046875 C 13.242188 -4.546875 14.304688 -4.296875 15.421875 -4.296875 C 16.546875 -4.296875 17.609375 -4.546875 18.609375 -5.046875 C 19.617188 -5.546875 20.488281 -6.226562 21.21875 -7.09375 C 21.957031 -7.96875 22.539062 -8.984375 22.96875 -10.140625 C 23.394531 -11.304688 23.609375 -12.546875 23.609375 -13.859375 C 23.609375 -15.171875 23.394531 -16.40625 22.96875 -17.5625 C 22.539062 -18.726562 21.957031 -19.734375 21.21875 -20.578125 C 20.488281 -21.429688 19.617188 -22.109375 18.609375 -22.609375 C 17.609375 -23.117188 16.546875 -23.375 15.421875 -23.375 Z M 15.421875 -23.375 "/></g></g></g></svg>